<svg width="178" height="99" xmlns="http://www.w3.org/2000/svg" xmlns:xlink="http://www.w3.org/1999/xlink" xml:space="preserve" overflow="hidden"><defs><clipPath id="clip0"><rect x="487" y="572" width="178" height="99"/></clipPath></defs><g clip-path="url(#clip0)" transform="translate(-487 -572)"><text font-family="Arial,Arial_MSFontService,sans-serif" font-weight="400" font-size="9" transform="matrix(1.23681 0 0 1.23739 629.381 639)">i</text><text font-family="Arial,Arial_MSFontService,sans-serif" font-weight="400" font-size="9" transform="matrix(1.23681 0 0 1.23739 632.004 639)">d</text><text font-family="Arial,Arial_MSFontService,sans-serif" font-weight="400" font-size="9" transform="matrix(1.23681 0 0 1.23739 637.665 639)">e</text><text font-family="Arial,Arial_MSFontService,sans-serif" font-weight="400" font-size="9" transform="matrix(1.23681 0 0 1.23739 643.042 639)">n</text><text font-family="Arial,Arial_MSFontService,sans-serif" font-weight="400" font-size="9" transform="matrix(1.23681 0 0 1.23739 648.852 639)">t</text><text font-family="Arial,Arial_MSFontService,sans-serif" font-weight="400" font-size="9" transform="matrix(1.23681 0 0 1.23739 652.477 639)">i</text><text font-family="Arial,Arial_MSFontService,sans-serif" font-weight="400" font-size="9" transform="matrix(1.23681 0 0 1.23739 654.947 639)">t</text><text font-family="Arial,Arial_MSFontService,sans-serif" font-weight="400" font-size="9" transform="matrix(1.23681 0 0 1.23739 658.572 639)">y</text><path d="M91.0395 70.1833 161.918 70.1833 161.918 86.596 91.0395 86.596Z" fill="#FFFFFF" transform="matrix(1 0 0 -1 435.656 675.583)"/><path d="M91.0395 70.1833 161.918 70.1833 161.918 86.596 91.0395 86.596Z" stroke="#000000" stroke-width="0.908242" stroke-linecap="round" stroke-linejoin="round" stroke-miterlimit="10" fill="none" transform="matrix(1 0 0 -1 435.656 675.583)"/><text font-family="Arial,Arial_MSFontService,sans-serif" font-weight="400" font-size="8" transform="matrix(1.23682 0 0 1.23739 537.879 600)">w</text><text font-family="Arial,Arial_MSFontService,sans-serif" font-weight="400" font-size="8" transform="matrix(1.23682 0 0 1.23739 544.709 600)">e</text><text font-family="Arial,Arial_MSFontService,sans-serif" font-weight="400" font-size="8" transform="matrix(1.23682 0 0 1.23739 549.508 600)">i</text><text font-family="Arial,Arial_MSFontService,sans-serif" font-weight="400" font-size="8" transform="matrix(1.23682 0 0 1.23739 551.83 600)">g</text><text font-family="Arial,Arial_MSFontService,sans-serif" font-weight="400" font-size="8" transform="matrix(1.23682 0 0 1.23739 556.333 600)">h</text><text font-family="Arial,Arial_MSFontService,sans-serif" font-weight="400" font-size="8" transform="matrix(1.23682 0 0 1.23739 561.407 600)">t</text><text font-family="Arial,Arial_MSFontService,sans-serif" font-weight="400" font-size="8" transform="matrix(1.23682 0 0 1.23739 564.61 600)"> </text><text font-family="Arial,Arial_MSFontService,sans-serif" font-weight="400" font-size="8" transform="matrix(1.23682 0 0 1.23739 566.932 600)">l</text><text font-family="Arial,Arial_MSFontService,sans-serif" font-weight="400" font-size="8" transform="matrix(1.23682 0 0 1.23739 569.109 600)">a</text><text font-family="Arial,Arial_MSFontService,sans-serif" font-weight="400" font-size="8" transform="matrix(1.23682 0 0 1.23739 573.756 600)">y</text><text font-family="Arial,Arial_MSFontService,sans-serif" font-weight="400" font-size="8" transform="matrix(1.23682 0 0 1.23739 578.118 600)">e</text><text font-family="Arial,Arial_MSFontService,sans-serif" font-weight="400" font-size="8" transform="matrix(1.23682 0 0 1.23739 582.917 600)">r</text><path d="M91.0395 37.5027 161.918 37.5027 161.918 53.9154 91.0395 53.9154Z" fill="#FFFFFF" transform="matrix(1 0 0 -1 435.656 675.583)"/><path d="M91.0395 37.5027 161.918 37.5027 161.918 53.9154 91.0395 53.9154Z" stroke="#000000" stroke-width="0.908242" stroke-linecap="round" stroke-linejoin="round" stroke-miterlimit="10" fill="none" transform="matrix(1 0 0 -1 435.656 675.583)"/><text font-family="Arial,Arial_MSFontService,sans-serif" font-weight="400" font-size="8" transform="matrix(1.23682 0 0 1.23739 537.879 633)">w</text><text font-family="Arial,Arial_MSFontService,sans-serif" font-weight="400" font-size="8" transform="matrix(1.23682 0 0 1.23739 544.709 633)">e</text><text font-family="Arial,Arial_MSFontService,sans-serif" font-weight="400" font-size="8" transform="matrix(1.23682 0 0 1.23739 549.508 633)">i</text><text font-family="Arial,Arial_MSFontService,sans-serif" font-weight="400" font-size="8" transform="matrix(1.23682 0 0 1.23739 551.83 633)">g</text><text font-family="Arial,Arial_MSFontService,sans-serif" font-weight="400" font-size="8" transform="matrix(1.23682 0 0 1.23739 556.333 633)">h</text><text font-family="Arial,Arial_MSFontService,sans-serif" font-weight="400" font-size="8" transform="matrix(1.23682 0 0 1.23739 561.407 633)">t</text><text font-family="Arial,Arial_MSFontService,sans-serif" font-weight="400" font-size="8" transform="matrix(1.23682 0 0 1.23739 564.61 633)"> </text><text font-family="Arial,Arial_MSFontService,sans-serif" font-weight="400" font-size="8" transform="matrix(1.23682 0 0 1.23739 566.932 633)">l</text><text font-family="Arial,Arial_MSFontService,sans-serif" font-weight="400" font-size="8" transform="matrix(1.23682 0 0 1.23739 569.109 633)">a</text><text font-family="Arial,Arial_MSFontService,sans-serif" font-weight="400" font-size="8" transform="matrix(1.23682 0 0 1.23739 573.756 633)">y</text><text font-family="Arial,Arial_MSFontService,sans-serif" font-weight="400" font-size="8" transform="matrix(1.23682 0 0 1.23739 578.118 633)">e</text><text font-family="Arial,Arial_MSFontService,sans-serif" font-weight="400" font-size="8" transform="matrix(1.23682 0 0 1.23739 582.917 633)">r</text><path d="M0 0 0-12.3454" stroke="#000000" stroke-width="0.908242" stroke-linecap="round" stroke-linejoin="round" stroke-miterlimit="10" fill="none" transform="matrix(1 0 0 -1 562.134 605.4)"/><path d="M0 0-2.61336 5.2292C-1.01589 4.35684 1.01713 4.35684 2.6146 5.2292L0 0" fill-rule="evenodd" transform="matrix(1 0 0 -1 562.134 621.668)"/><path d="M0 0 0-12.3454" stroke="#000000" stroke-width="0.908242" stroke-linecap="round" stroke-linejoin="round" stroke-miterlimit="10" fill="none" transform="matrix(1 0 0 -1 562.134 572.721)"/><path d="M0 0-2.61336 5.2292C-1.01589 4.35684 1.01713 4.35684 2.6146 5.2292L0 0" fill-rule="evenodd" transform="matrix(1 0 0 -1 562.134 588.988)"/><path d="M0 0 0-6.82666" stroke="#000000" stroke-width="0.908242" stroke-linecap="round" stroke-linejoin="round" stroke-miterlimit="10" fill="none" transform="matrix(1 0 0 -1 562.134 638.081)"/><path d="M0 0-2.61336 5.37397C-1.01589 4.50285 1.01713 4.50285 2.6146 5.37397L0 0" fill-rule="evenodd" transform="matrix(1 0 0 -1 562.134 648.973)"/><path d="M0 0C0 2.90538-2.32381 5.37397-5.37397 5.37397-8.42413 5.37397-10.8927 2.90538-10.8927 0-10.8927-3.05016-8.42413-5.51874-5.37397-5.51874-2.32381-5.51874 0-3.05016 0 0" fill="#FFFFFF" fill-rule="evenodd" transform="matrix(1 0 0 -1 567.508 654.347)"/><path d="M0 0C0 2.90538-2.32381 5.37397-5.37397 5.37397-8.42413 5.37397-10.8927 2.90538-10.8927 0-10.8927-3.05016-8.42413-5.51874-5.37397-5.51874-2.32381-5.51874 0-3.05016 0 0Z" stroke="#000000" stroke-width="0.908242" stroke-linecap="round" stroke-linejoin="round" stroke-miterlimit="10" fill="none" transform="matrix(1 0 0 -1 567.508 654.347)"/><path d="M0 0 5.51998 0" stroke="#000000" stroke-width="0.908242" stroke-linecap="round" stroke-linejoin="round" stroke-miterlimit="10" fill="none" transform="matrix(1 0 0 -1 559.375 654.347)"/><path d="M0 0 0 5.37397" stroke="#000000" stroke-width="0.908242" stroke-linecap="round" stroke-linejoin="round" stroke-miterlimit="10" fill="none" transform="matrix(1 0 0 -1 562.134 657.107)"/><path d="M0 0 0-6.82666" stroke="#000000" stroke-width="0.908242" stroke-linecap="round" stroke-linejoin="round" stroke-miterlimit="10" fill="none" transform="matrix(1 0 0 -1 562.134 659.866)"/><path d="M0 0-2.61336 5.37397C-1.01589 4.50285 1.01713 4.50285 2.6146 5.37397L0 0" fill-rule="evenodd" transform="matrix(1 0 0 -1 562.134 670.759)"/><text font-family="Arial,Arial_MSFontService,sans-serif" font-weight="400" font-size="9" transform="matrix(1.23681 0 0 1.23739 566.928 615)">r</text><text font-family="Arial,Arial_MSFontService,sans-serif" font-weight="400" font-size="9" transform="matrix(1.23681 0 0 1.23739 570.712 615)">e</text><text font-family="Arial,Arial_MSFontService,sans-serif" font-weight="400" font-size="9" transform="matrix(1.23681 0 0 1.23739 576.24 615)">l</text><text font-family="Arial,Arial_MSFontService,sans-serif" font-weight="400" font-size="9" transform="matrix(1.23681 0 0 1.23739 578.718 615)">u</text><text font-family="Arial,Arial_MSFontService,sans-serif" font-weight="400" font-size="9" transform="matrix(1.23681 0 0 1.23739 566.928 669)">r</text><text font-family="Arial,Arial_MSFontService,sans-serif" font-weight="400" font-size="9" transform="matrix(1.23681 0 0 1.23739 570.712 669)">e</text><text font-family="Arial,Arial_MSFontService,sans-serif" font-weight="400" font-size="9" transform="matrix(1.23681 0 0 1.23739 576.24 669)">l</text><text font-family="Arial,Arial_MSFontService,sans-serif" font-weight="400" font-size="9" transform="matrix(1.23681 0 0 1.23739 578.718 669)">u</text><path d="M0 0C51.4159 0 59.6952-20.1892 56.7899-48.0749 55.3372-61.0019 51.5619-75.5251 4.06729-76.2515" stroke="#000000" stroke-width="0.908242" stroke-linecap="round" stroke-linejoin="round" stroke-miterlimit="10" fill="none" transform="matrix(1 0 0 -1 567.508 578.095)"/><path d="M0 0 5.37397-2.6146C4.50285-1.01713 4.50285 1.01713 5.37397 2.6146L0 0" fill-rule="evenodd" transform="matrix(1 0 0 -1 567.508 654.347)"/><path d="M0 0 5.37397 0" stroke="#000000" stroke-width="0.908242" stroke-linecap="round" stroke-linejoin="round" stroke-miterlimit="10" fill="none" transform="matrix(1 0 0 -1 562.134 578.095)"/><text fill="#231F20" font-family="Arial,Arial_MSFontService,sans-serif" font-weight="400" font-size="10" transform="matrix(1.23739 0 0 1.23739 497.311 661)">F</text><text fill="#231F20" font-family="Arial,Arial_MSFontService,sans-serif" font-weight="400" font-size="10" transform="matrix(1.23739 0 0 1.23739 506.174 661)">(</text><text fill="#231F20" font-family="Arial,Arial_MSFontService,sans-serif" font-weight="400" font-size="10" transform="matrix(1.23739 0 0 1.23739 510.958 661)">x</text><text fill="#231F20" font-family="Arial,Arial_MSFontService,sans-serif" font-weight="400" font-size="10" transform="matrix(1.23739 0 0 1.23739 518.429 661)">)</text><text fill="#231F20" font-family="Arial,Arial_MSFontService,sans-serif" font-weight="400" font-size="10" transform="matrix(1.23739 0 0 1.23739 526.01 661)">+</text><text fill="#231F20" font-family="Arial,Arial_MSFontService,sans-serif" font-weight="400" font-size="10" transform="matrix(1.23739 0 0 1.23739 538.388 661)">x</text><text fill="#231F20" font-family="Arial,Arial_MSFontService,sans-serif" font-weight="400" font-size="10" transform="matrix(1.23739 0 0 1.23739 545.316 579)">x</text><text fill="#231F20" font-family="Arial,Arial_MSFontService,sans-serif" font-weight="400" font-size="10" transform="matrix(1.23739 0 0 1.23739 485.796 617)">F</text><text fill="#231F20" font-family="Arial,Arial_MSFontService,sans-serif" font-weight="400" font-size="10" transform="matrix(1.23739 0 0 1.23739 494.66 617)">(</text><text fill="#231F20" font-family="Arial,Arial_MSFontService,sans-serif" font-weight="400" font-size="10" transform="matrix(1.23739 0 0 1.23739 499.443 617)">x</text><text fill="#231F20" font-family="Arial,Arial_MSFontService,sans-serif" font-weight="400" font-size="10" transform="matrix(1.23739 0 0 1.23739 506.914 617)">)</text><text fill="#231F20" font-family="Arial,Arial_MSFontService,sans-serif" font-weight="400" font-size="10" transform="matrix(1.23739 0 0 1.23739 641.833 623)">x</text></g></svg>